HIERARCHY
ROOT Hips
{
	OFFSET	0.00	0.00	0.00
	CHANNELS 6 Xposition Yposition Zposition Zrotation Xrotation Yrotation
	JOINT Spine
	{
		OFFSET	 0.00	0.01	 0.00
		CHANNELS 3 Zrotation Xrotation Yrotation
		JOINT Spine1
		{
			OFFSET	 0.00	 2.45913012437421	 0.00
			CHANNELS 3 Zrotation Xrotation Yrotation
            JOINT Neck
            {
                OFFSET	 0.00	 2.48462964506057	 0.00
                CHANNELS 3 Zrotation Xrotation Yrotation
                JOINT Head
                {
                    OFFSET	 0.00	 0.927524780924562	 0.00
                    CHANNELS 3 Zrotation Xrotation Yrotation
                    End Site 
                    {
                        OFFSET	 0.00	 1.14999962169752	 0.00
                    }
                }
            }
			JOINT LeftShoulder
			{
				OFFSET	 0.00	 2.48462964506057	 0.00
				CHANNELS 3 Zrotation Xrotation Yrotation
				JOINT LeftUpArm
				{
					OFFSET	 0.00	 1.24881979654096	 0.00
					CHANNELS 3 Zrotation Xrotation Yrotation
					JOINT LeftForeArm
					{
						OFFSET	 0.00	2.59758046908119	 0.00
						CHANNELS 3 Zrotation Xrotation Yrotation
						JOINT LeftHand
						{
							OFFSET	 0.00	2.45542024364365	 0.00
							CHANNELS 3 Zrotation Xrotation Yrotation
							JOINT LeftHandThumb 
							{
								OFFSET	 0.00	0.00	 0.00
								CHANNELS 3 Zrotation Xrotation Yrotation
								End Site
								{
									OFFSET	 0.00	0.00	1.00000003353624
								}
							}
							JOINT L_Wrist_End 
							{
								OFFSET	 0.00	0.99999967115358	 0.00
								CHANNELS 3 Zrotation Xrotation Yrotation
								End Site 
								{
									OFFSET	 0.00	 0.00	 0.00
								}
							}
						}
					}
				}
			}
			JOINT RightShoulder
			{
				OFFSET	 0.00	 2.48462964506057	 0.00
				CHANNELS 3 Zrotation Xrotation Yrotation
				JOINT RightUpArm
				{
					OFFSET	 0.00	 1.24881979654096	 0.00
					CHANNELS 3 Zrotation Xrotation Yrotation
					JOINT RightForeArm
					{
						OFFSET	 0.00	2.59758046908119	 0.00
						CHANNELS 3 Zrotation Xrotation Yrotation
						JOINT RightHand
						{
							OFFSET	 0.00	2.45542024364365	 0.00
							CHANNELS 3 Zrotation Xrotation Yrotation
							JOINT RightHandThumb 
							{
								OFFSET	 0.00	0.00	 0.00
								CHANNELS 3 Zrotation Xrotation Yrotation
								End Site
								{
									OFFSET	 0.00	0.00	1.00000003353624
								}
							}
							JOINT R_Wrist_End 
							{
								OFFSET	 0.00	0.99999967115358	 0.00
								CHANNELS 3 Zrotation Xrotation Yrotation
								End Site 
								{
									OFFSET	 0.00	 0.00	 0.00
								}
							}
						}
					}
				}
			}
		}
	}
	JOINT LeftUpLeg
	{
		OFFSET	 1.2719394002717	 0.00	 0.00
		CHANNELS 3 Zrotation Xrotation Yrotation
		JOINT LeftLowLeg
		{
			OFFSET	 0.00	-4.3429100912261	 0.00
			CHANNELS 3 Zrotation Xrotation Yrotation
			JOINT LeftFoot
			{
				OFFSET	 0.00	-4.48767017425826	 0.00
				CHANNELS 3 Zrotation Xrotation Yrotation
				JOINT LeftToeBase
                {
                    OFFSET	 0.00	0.00	 1.51507020887566
                    CHANNELS 3 Zrotation Xrotation Yrotation
                    End Site 
                    {
                        OFFSET	 0.00	0.00	 0.75000010571191
                    }
                }
			}
		}
	}
	JOINT RightUpLeg
	{
		OFFSET	 -1.2719393604653	 0.00	 0.00
		CHANNELS 3 Zrotation Xrotation Yrotation
		JOINT RightLowLeg
		{
			OFFSET	 0.00	-4.3429100912261	 0.00
			CHANNELS 3 Zrotation Xrotation Yrotation
			JOINT RightFoot
			{
				OFFSET	 0.00	-4.48767017425826	 0.00
				CHANNELS 3 Zrotation Xrotation Yrotation
				JOINT RightToeBase
                {
                    OFFSET	 0.00	0.00	 1.51507020887566
                    CHANNELS 3 Zrotation Xrotation Yrotation
                    End Site 
                    {
                        OFFSET	 0.00	0.00	 0.749999965609858
                    }
                }   
			}
		}
	}
}
MOTION 
Frames:	16 
Frame Time: 0.02 
  -0.4363520050048828 1.942519989013672 6.828469848632812 -6.01518 70.6292 -344.667 10.4809 1.75163 13.0951 -4.61362 8.48479 -15.2747 16.04 44.4572 -18.5964 13.5752 -80.7173 391.227 -117.3626 5.4261 10.1568 -37.6001 36.982 -376.723 0.0 147.627 0.0 12.8397 -22.2174 411.279 0.0 0.0 0.0 0.0 0.0 0.0 122.4272 0.0188905 -3.98595 38.694 32.4341 7.02692 0.0 140.07 0.0 -27.1896 1.5678 -27.1132 0.0 0.0 0.0 0.0 0.0 0.0 -51.658 -71.9066 -57.4793 0.0 67.1689 0.0 -9.41181 22.51564 8.61139 0.0 -14.65113 0.0 -0.292404 -58.6288 -9.78339 0.0 92.9521 0.0 12.2236 8.9708805 -12.0617 0.0 -26.9547 0.0 
  -0.4341600036621094 1.9300900268554688 6.830130004882813 -5.63128 70.6973 -345.081 10.3311 1.5019 13.2751 -4.99602 8.36984 -15.1011 16.7125 44.649 -19.0197 16.3172 -80.9691 393.782 -117.3164 5.39436 10.2325 -37.2721 36.9461 -376.758 0.0 147.632 0.0 13.4303 -22.0055 411.573 0.0 0.0 0.0 0.0 0.0 0.0 122.9075 0.0431908 -4.06541 38.2259 32.3743 7.49494 0.0 140.248 0.0 -27.1695 0.929306 -26.9922 0.0 0.0 0.0 0.0 0.0 0.0 -48.69 -71.3226 -56.5173 0.0 68.9007 0.0 -9.87938 22.22937 8.77798 0.0 -14.516777 0.0 -1.32066 -59.016 -9.75866 0.0 93.4995 0.0 12.3298 8.67793 -12.1657 0.0 -26.7594 0.0 
  -0.4338619995117188 1.913719940185547 6.83239990234375 -5.29712 70.7783 -345.449 10.1313 1.09781 13.4792 -5.22979 8.44131 -14.817 17.3893 44.6535 -19.5533 18.8345 -81.0812 396.061 -117.2767 5.47857 10.1871 -37.0398 36.8186 -376.684 0.0 147.681 0.0 13.8858 -21.9671 412.011 0.0 0.0 0.0 0.0 0.0 0.0 123.128 -0.0513791 -4.01126 38.2707 32.2208 7.40202 0.0 140.357 0.0 -27.5232 0.923522 -27.2676 0.0 0.0 0.0 0.0 0.0 0.0 -45.6779 -70.7581 -55.0853 0.0 71.0801 0.0 -10.3592 21.81312 8.82512 0.0 -14.577299 0.0 -2.42949 -59.3766 -10.0507 0.0 94.1832 0.0 11.3526 8.20245 -12.6915 0.0 -26.6165 0.0 
  -0.435364990234375 1.8953399658203125 6.833709716796875 -5.44735 70.9739 -345.391 10.0023 0.581829 13.6912 -5.4499 8.47105 -14.4966 17.9978 44.6252 -19.982 21.4028 -81.0995 398.335 -117.1944 5.52464 10.1748 -36.9336 36.8099 -376.585 0.0 147.746 0.0 14.2239 -21.9608 412.572 0.0 0.0 0.0 0.0 0.0 0.0 123.313095 -0.131378 -3.98819 38.3104 32.0507 7.27985 0.0 140.557 0.0 -28.0021 0.477754 -27.4768 0.0 0.0 0.0 0.0 0.0 0.0 -42.8597 -70.3137 -53.612 0.0 73.6887 0.0 -11.1072 21.19951 8.74493 0.0 -14.587165 0.0 -3.51994 -59.7823 -10.7905 0.0 94.9596 0.0 9.49231 7.14838 -13.6792 0.0 -26.0023 0.0 
  -0.43686500549316404 1.874149932861328 6.834829711914063 -5.60239 71.2851 -345.281 9.71856 -0.0319951 13.8242 -5.44796 8.38851 -14.229 18.5297 44.6761 -20.3721 23.6617 -81.2413 400.367 -117.2663 5.48876 10.1565 -36.8148 36.7967 -376.569 0.0 147.785 0.0 14.4257 -21.9451 412.92 0.0 0.0 0.0 0.0 0.0 0.0 123.3914 -0.120553 -4.00159 38.3366 31.856 7.20751 0.0 140.749 0.0 -28.049 0.696704 -27.3916 0.0 0.0 0.0 0.0 0.0 0.0 -40.4303 -69.9186 -52.1837 0.0 76.6899 0.0 -11.8773 20.55747 8.27325 0.0 -14.50548 0.0 -4.87145 -60.2873 -12.0256 0.0 96.074 0.0 7.47063 5.63861 -14.5541 0.0 -25.480099 0.0 
  -0.43844600677490236 1.854810028076172 6.834949951171875 -6.01986 71.8305 -344.882 9.48981 -0.639137 14.0107 -5.58099 7.97888 -13.9714 19.0309 44.7855 -20.7079 25.8465 -81.3675 402.214 -117.3098 5.4691 9.95549 -36.9499 36.5527 -376.22 0.0 147.825 0.0 14.6464 -21.8738 413.011 0.0 0.0 0.0 0.0 0.0 0.0 123.5264 -0.201401 -3.98868 38.2835 31.6396 7.16024 0.0 141.087 0.0 -27.9661 0.287316 -27.7665 0.0 0.0 0.0 0.0 0.0 0.0 -38.5894 -69.7888 -51.0103 0.0 80.0554 0.0 -12.0229 20.33739 7.51053 0.0 -14.508099 0.0 -6.54566 -61.0202 -13.8251 0.0 97.5252 0.0 4.8893 4.4442997 -15.0217 0.0 -25.314 0.0 
  -0.43676300048828126 1.8342999267578124 6.8358001708984375 -6.32826 72.3264 -344.494 9.38874 -1.03263 14.2243 -5.96804 7.38005 -13.7997 19.6518 44.7821 -21.2414 27.5766 -81.2848 403.609 -117.287704 5.41118 9.97125 -37.0876 36.4116 -376.016 0.0 147.866 0.0 14.5779 -21.8711 412.85 0.0 0.0 0.0 0.0 0.0 0.0 123.6861 -0.393452 -3.98648 38.2717 31.4591 7.09693 0.0 141.363 0.0 -27.6936 -0.071714 -27.7275 0.0 0.0 0.0 0.0 0.0 0.0 -37.0015 -69.6123 -49.6362 0.0 83.6913 0.0 -11.7845 20.34888 7.06154 0.0 -14.413096 0.0 -8.87661 -61.5637 -16.572 0.0 99.324 0.0 2.78407 3.3862 -15.1577 0.0 -24.90089 0.0 
  -0.4337419891357422 1.8162199401855468 6.8393798828125 -6.94272 72.6921 -343.881 9.43915 -1.37551 14.4597 -6.25957 7.07775 -13.5586 19.9405 44.4172 -21.5098 29.0388 -81.1097 404.661 -117.252396 5.43929 10.0161 -37.1819 36.3432 -375.865 0.0 147.927 0.0 14.8013 -21.703 412.732 0.0 0.0 0.0 0.0 0.0 0.0 123.7823 -0.502846 -3.96461 38.1989 31.4066 7.07448 0.0 141.799 0.0 -27.6244 -1.31017 -28.6699 0.0 0.0 0.0 0.0 0.0 0.0 -34.9739 -69.4267 -47.515 0.0 87.511 0.0 -11.5668 19.90907 6.9885 0.0 -14.403411 0.0 -10.4545 -61.8442 -18.5689 0.0 101.187 0.0 2.13217 2.0228996 -14.7934 0.0 -24.57979 0.0 
  -0.4290610122680664 1.7989799499511718 6.845260009765625 -7.52081 72.9388 -343.359 9.5104 -1.66399 14.6749 -6.41901 7.06246 -13.2833 20.1861 43.7263 -21.8922 30.6684 -80.9814 406.023 -117.1826 5.52563 9.9761 -37.3777 36.2673 -375.732 0.0 148.081 0.0 14.8914 -21.5914 412.454 0.0 0.0 0.0 0.0 0.0 0.0 123.7171 -0.603649 -3.89586 38.2763 31.4888 6.90649 0.0 142.035 0.0 -27.5764 -0.879428 -28.7334 0.0 0.0 0.0 0.0 0.0 0.0 -32.6984 -69.1162 -44.9024 0.0 91.4 0.0 -11.3688 18.938839 7.10029 0.0 -14.260474 0.0 -11.6982 -61.9242 -20.1996 0.0 103.146 0.0 1.584 0.9715996 -14.0355 0.0 -24.66859 0.0 
  -0.4228990173339844 1.782550048828125 6.852760009765625 -8.01173 73.1982 -342.885 9.51736 -1.99539 14.7947 -6.44016 7.2014 -13.0544 20.2503 42.9494 -22.091 32.5114 -80.925 407.684 -117.1427 5.58919 9.98041 -37.4841 36.304 -375.717 0.0 148.282 0.0 15.0764 -21.515 412.388 0.0 0.0 0.0 0.0 0.0 0.0 123.559204 -0.579164 -3.8685 38.3482 31.6521 6.79182 0.0 142.368 0.0 -27.6446 -1.012 -28.7227 0.0 0.0 0.0 0.0 0.0 0.0 -30.7964 -68.709 -42.5603 0.0 95.2689 0.0 -11.1455 17.79948 7.17962 0.0 -13.89166 0.0 -13.0462 -61.8523 -21.9961 0.0 105.195 0.0 0.218007 -0.4329996 -13.4101 0.0 -24.50915 0.0 
  -0.41535099029541017 1.7699800109863282 6.862109985351562 -8.67556 73.5275 -342.295 9.64307 -2.2577 14.9525 -6.61421 7.23573 -12.8493 20.3695 42.2987 -22.2888 34.8262 -80.9685 409.886 -117.0599 5.68092 10.0577 -37.5453 36.27 -375.772 0.0 148.469 0.0 15.1544 -21.3272 412.363 0.0 0.0 0.0 0.0 0.0 0.0 123.511 -0.568614 -3.81878 38.3461 31.83 6.62036 0.0 142.691 0.0 -27.7629 -1.45801 -28.8542 0.0 0.0 0.0 0.0 0.0 0.0 -29.1519 -68.3438 -40.4949 0.0 99.0867 0.0 -10.8356 16.80224 7.34764 0.0 -14.176484 0.0 -13.8142 -61.7236 -23.1096 0.0 107.045 0.0 -0.0593471 -2.6243 -12.6287 0.0 -23.72897 0.0 
  -0.4086370086669922 1.76218994140625 6.8714697265625 -9.35716 73.8377 -341.716 9.72779 -2.31818 15.0536 -6.78432 7.07964 -12.7842 20.4887 41.7733 -22.4169 36.7749 -80.9055 411.774 -116.9728 5.63179 9.97499 -37.6732 36.1761 -375.624 0.0 148.66 0.0 15.2351 -21.2694 412.354 0.0 0.0 0.0 0.0 0.0 0.0 123.484 -0.525971 -3.83625 38.3601 32.0341 6.43429 0.0 142.826 0.0 -27.6547 -1.3864 -28.8578 0.0 0.0 0.0 0.0 0.0 0.0 -27.5128 -67.9258 -38.4628 0.0 102.649 0.0 -11.0153 15.165857 7.18408 0.0 -14.109604 0.0 -14.3616 -61.5161 -23.9887 0.0 108.775 0.0 -0.608354 -3.7168007 -11.8615 0.0 -23.76543 0.0 
  -0.40299301147460936 1.756699981689453 6.881680297851562 -10.0717 74.1317 -341.016 9.71229 -2.2949 15.0401 -6.82553 6.8531 -12.8537 20.5929 41.2602 -22.4929 38.8485 -80.8257 413.796 -116.9228 5.51801 9.9396 -37.723 36.1676 -375.508 0.0 148.853 0.0 15.2802 -21.296 412.357 0.0 0.0 0.0 0.0 0.0 0.0 123.4435 -0.483723 -3.89415 38.3881 32.2163 6.25915 0.0 142.854 0.0 -27.6011 -1.28795 -28.8249 0.0 0.0 0.0 0.0 0.0 0.0 -26.049 -67.4173 -36.6635 0.0 105.915 0.0 -10.3686 12.42798 6.76462 0.0 -13.82731 0.0 -14.5697 -61.1902 -24.3652 0.0 110.374 0.0 -0.0685379 -4.5459003 -10.2648 0.0 -23.77872 0.0 
  -0.3979880142211914 1.75468994140625 6.891099853515625 -10.5838 74.4648 -340.433 9.60547 -2.19665 14.9929 -6.84591 6.60108 -12.9708 20.6934 40.7779 -22.528 41.312 -80.7951 416.124 -116.8387 5.46024 9.92016 -37.778 36.2279 -375.327 0.0 149.053 0.0 15.4 -21.3614 412.289 0.0 0.0 0.0 0.0 0.0 0.0 123.3696 -0.464594 -3.94194 38.4384 32.3679 6.10323 0.0 142.9 0.0 -27.6722 -1.43611 -28.75 0.0 0.0 0.0 0.0 0.0 0.0 -25.1296 -66.8875 -35.4666 0.0 108.891 0.0 -9.91034 9.46088 6.28221 0.0 -13.47659 0.0 -14.6898 -60.8185 -24.4292 0.0 111.857 0.0 0.733324 -5.1714 -8.04543 0.0 -24.107391 0.0 
  -0.3944800186157227 1.7548500061035157 6.899000244140625 -11.0833 74.7956 -339.815 9.47123 -1.95777 14.9448 -6.91522 6.19708 -13.1525 20.9028 40.3747 -22.6422 43.7803 -80.7358 418.363 -116.7463 5.44839 9.94311 -37.768 36.2977 -375.206 0.0 149.227 0.0 15.3319 -21.4603 412.223 0.0 0.0 0.0 0.0 0.0 0.0 123.332 -0.559971 -4.05655 38.4917 32.5359 5.98596 0.0 142.859 0.0 -27.7362 -1.19666 -28.8059 0.0 0.0 0.0 0.0 0.0 0.0 -24.5848 -66.4402 -34.7345 0.0 111.654 0.0 -10.0077 6.87747 5.76868 0.0 -13.33942 0.0 -14.5947 -60.3869 -24.1658 0.0 113.204 0.0 1.59833 -6.0245 -5.73293 0.0 -24.25403 0.0 
  -0.3880419921875 1.7575900268554687 6.906160278320312 -11.4108 75.1169 -339.332 9.49867 -1.55728 14.9384 -7.33092 5.73921 -13.3871 21.3379 39.9213 -22.9926 46.0319 -80.5234 420.419 -116.5395 5.40453 10.1246 -37.7257 36.5445 -375.166 0.0 149.335 0.0 15.2089 -21.4843 412.166 0.0 0.0 0.0 0.0 0.0 0.0 123.376 -0.712193 -4.23428 38.5766 32.6721 5.9985 0.0 142.758 0.0 -27.4365 -0.405677 -28.0074 0.0 0.0 0.0 0.0 0.0 0.0 -24.3635 -65.922 -34.3267 0.0 114.156 0.0 -9.54085 3.9318 5.45766 0.0 -13.153481 0.0 -14.5377 -59.9294 -23.8125 0.0 114.447 0.0 2.62832 -6.6408005 -3.59859 0.0 -24.15327 0.0 
